<?xml version="1.0" encoding="utf-8"?>
<!-- Generator: Adobe Illustrator 27.4.1, SVG Export Plug-In . SVG Version: 6.00 Build 0)  -->
<svg version="1.1" xmlns="http://www.w3.org/2000/svg" xmlns:xlink="http://www.w3.org/1999/xlink" x="0px" y="0px"
	 viewBox="0 0 108.3 106" style="enable-background:new 0 0 108.3 106;" xml:space="preserve">
<style type="text/css">
	.st0{fill:#FFFFFF;}
	.st1{fill:#00ADEE;}
</style>
<g id="background">
	<rect x="-980.5" y="-263" class="st0" width="450" height="450"/>
</g>
<g id="icons">
	<path class="st1" d="M54,17.5c-19.5,0-35.3,15.8-35.3,35.3S34.5,88.2,54,88.2c19.5,0,35.3-15.8,35.3-35.3S73.5,17.5,54,17.5z
		 M50.1,31.4h7.7v6.9h-7.7V31.4z M69.8,71.4c-0.7,0.6-1.8,0.9-3.3,0.9h-22c-1.6,0-2.7-0.3-3.3-0.9s-1-1.4-1-2.4c0-0.9,0.3-1.7,1-2.3
		s1.8-0.9,3.3-0.9h7.8V50.1H47c-1.5,0-2.6-0.3-3.3-0.9c-0.7-0.6-1-1.4-1-2.4c0-0.9,0.3-1.7,1-2.3s1.8-0.9,3.3-0.9h11.7v22.2h7.8
		c1.6,0,2.7,0.3,3.3,0.9c0.7,0.6,1,1.4,1,2.4C70.8,70.1,70.5,70.8,69.8,71.4z"/>
</g>
</svg>
