<?xml version="1.0" encoding="utf-8"?>
<!-- Generator: Adobe Illustrator 27.4.1, SVG Export Plug-In . SVG Version: 6.00 Build 0)  -->
<svg version="1.1" xmlns="http://www.w3.org/2000/svg" xmlns:xlink="http://www.w3.org/1999/xlink" x="0px" y="0px"
	 viewBox="0 0 108.3 106" style="enable-background:new 0 0 108.3 106;" xml:space="preserve">
<style type="text/css">
	.st0{fill:#FFFFFF;}
	.st1{fill:none;stroke:#00ADEE;stroke-width:3;stroke-miterlimit:10;}
	.st2{fill:#00ADEE;}
	.st3{fill:none;stroke:#00ADEE;stroke-width:2;stroke-miterlimit:10;}
</style>
<g id="background">
	<rect x="-980.5" y="-263" class="st0" width="450" height="450"/>
</g>
<g id="icons">
	<g>
		<path class="st1" d="M54.2,25.7C39.2,25.7,27,37.9,27,53C27,68,39.2,80.2,54.2,80.2S81.5,68,81.5,53
			C81.5,37.9,69.3,25.7,54.2,25.7z"/>
		<path class="st2" d="M54.2,33.7C43.6,33.7,35,42.4,35,53c0,10.6,8.6,19.2,19.2,19.2S73.5,63.6,73.5,53
			C73.5,42.4,64.9,33.7,54.2,33.7z"/>
		<line class="st3" x1="54.2" y1="23.7" x2="54.2" y2="10.9"/>
		<line class="st3" x1="24.8" y1="53" x2="12" y2="52.9"/>
		<line class="st3" x1="96.3" y1="53.1" x2="83.6" y2="53"/>
		<line class="st3" x1="54.2" y1="95" x2="54.2" y2="82.3"/>
	</g>
</g>
</svg>
