<?xml version="1.0" encoding="utf-8"?>
<!-- Generator: Adobe Illustrator 27.4.1, SVG Export Plug-In . SVG Version: 6.00 Build 0)  -->
<svg version="1.1" xmlns="http://www.w3.org/2000/svg" xmlns:xlink="http://www.w3.org/1999/xlink" x="0px" y="0px"
	 viewBox="0 0 108.3 106" style="enable-background:new 0 0 108.3 106;" xml:space="preserve">
<style type="text/css">
	.st0{fill:#FFFFFF;}
	.st1{fill:none;stroke:#00ADEE;stroke-width:3;stroke-miterlimit:10;}
	.st2{fill:none;stroke:#00ADEE;stroke-miterlimit:10;}
	.st3{fill:none;stroke:#00ADEE;stroke-width:2;stroke-miterlimit:10;}
	.st4{fill:#00ADEE;}
</style>
<g id="background">
	<rect x="-980.5" y="-263" class="st0" width="450" height="450"/>
</g>
<g id="icons">
	<g>
		<g>
			<polygon class="st1" points="20.5,50.6 53.6,92.7 87.7,50.6 			"/>
			<polygon class="st1" points="71.9,34.1 35.7,34.1 21.2,47.7 87,47.7 			"/>
		</g>
		<polyline class="st1" points="53.1,33.8 39.4,49.7 54.1,92.9 		"/>
		<path class="st2" d="M53.6,92.7"/>
		<path class="st2" d="M39.4,49.7"/>
		<line class="st1" x1="54.1" y1="33.8" x2="68.1" y2="49.6"/>
		<line class="st1" x1="67.7" y1="49.6" x2="53.2" y2="92.7"/>
		<path class="st3" d="M72.2,28c0,0,7,2.5,12.1,9.8c0,0,2.7-9.2,9.4-13c0,0-8-2.2-12.5-8.7C81.3,16.1,78.9,24.6,72.2,28z"/>
		<path class="st4" d="M61.4,17.2c0,0,4,2.3,6.2,7.4c0,0,2.7-5.3,7.2-6.8c0,0-4.6-2.3-6.6-6.7C68.3,11.1,65.8,15.9,61.4,17.2z"/>
	</g>
</g>
</svg>
