<?xml version="1.0" encoding="utf-8"?>
<!-- Generator: Adobe Illustrator 27.4.1, SVG Export Plug-In . SVG Version: 6.00 Build 0)  -->
<svg version="1.1" id="Слой_1" xmlns="http://www.w3.org/2000/svg" xmlns:xlink="http://www.w3.org/1999/xlink" x="0px" y="0px"
	 viewBox="0 0 194 190.3" style="enable-background:new 0 0 194 190.3;" xml:space="preserve">
<style type="text/css">
	.st0{fill:#00ADEE;}
	.st1{fill:#FFFFFF;}
</style>
<g>
	<circle class="st0" cx="95.3" cy="102.5" r="53.2"/>
	<path class="st1" d="M121.2,80.9c-0.2-0.6-0.4-0.8-0.8-0.9c-0.8-0.3-2.2,0.2-2.2,0.2S68.4,98,65.5,100c-0.6,0.4-0.8,0.7-0.9,1
		c-0.5,1.4,1,2,1,2l12.8,4.2c0,0,0.5,0.1,0.6,0c2.9-1.8,29.3-18.5,30.9-19.1c0.2-0.1,0.4,0,0.4,0.2c-0.6,2.1-23.6,22.5-23.6,22.5
		s-0.1,0.1-0.1,0.2l0,0l-1.2,12.7c0,0-0.5,3.9,3.4,0c2.7-2.7,5.4-5,6.7-6.2c4.4,3,9.2,6.4,11.2,8.2c1,0.9,1.9,1,2.6,1
		c1.9-0.1,2.5-2.2,2.5-2.2s9.1-36.5,9.4-41.4c0-0.5,0.1-0.8,0.1-1.1C121.3,81.6,121.3,81.1,121.2,80.9z"/>
</g>
</svg>
