<?xml version="1.0" encoding="utf-8"?>
<!-- Generator: Adobe Illustrator 27.4.1, SVG Export Plug-In . SVG Version: 6.00 Build 0)  -->
<svg version="1.1" id="Слой_1" xmlns="http://www.w3.org/2000/svg" xmlns:xlink="http://www.w3.org/1999/xlink" x="0px" y="0px"
	 viewBox="0 0 194 190.3" style="enable-background:new 0 0 194 190.3;" xml:space="preserve">
<style type="text/css">
	.st0{fill:#00ADEE;}
	.st1{fill:#FFFFFF;}
</style>
<g>
	<g>
		<circle class="st0" cx="100.6" cy="98.6" r="46.8"/>
	</g>
	<g>
		<path id="XMLID_94_" class="st1" d="M101.1,75.1c13.4,2,19.6,8.3,21.3,21.5c0,0.1,0,0.2,0,0.3c0.1,1.2-0.2,2.8,1.4,2.8
			c1.4,0,1.5-1,1.5-2.1c0-0.3,0-0.6,0-0.9c0.2-12.5-10.9-24.1-23.8-24.5c-1,0.1-3-0.7-3.1,1.5C98.3,75.2,100,75,101.1,75.1z"/>
		<path id="XMLID_93_" class="st1" d="M103.8,78.8c-1.3-0.2-3-0.7-3.3,1c-0.3,1.8,1.6,1.7,2.8,1.9c8.3,1.8,11.2,4.8,12.5,12.8
			c0.1,0.3,0.1,0.7,0.1,1.1c0.1,0.9,0.3,1.8,1.7,1.6c0.7-0.1,1-0.5,1.1-1.1c0.1-0.5,0-1.2,0-1.6C118.8,86.8,112,79.7,103.8,78.8z"/>
		<path id="XMLID_92_" class="st1" d="M104.5,85.1c-0.9,0-1.7,0.1-2,1c-0.5,1.3,0.5,1.7,1.5,1.8c3.4,0.5,5.2,2.5,5.5,5.8
			c0,0.4,0.2,0.8,0.4,1.1c0.3,0.3,0.7,0.5,1.1,0.4c0.3,0,0.5-0.1,0.7-0.2c0.6-0.4,0.7-1.2,0.6-2C112.5,89.3,108.2,85,104.5,85.1z"/>
		<path id="XMLID_91_" class="st1" d="M121.7,111.2c-1.7-1.3-3.5-2.5-5.2-3.7c-3.5-2.4-6.7-2.6-9.4,1.3c-1.5,2.2-3.5,2.3-5.7,1.3
			c-5.9-2.6-10.5-6.7-13.2-12.6c-0.4-0.9-0.7-1.8-0.7-2.7c-0.1-1.6,0.5-3,2.3-4.2c1.5-1,3-2.1,2.8-4.3c-0.2-2.8-7.1-12.1-9.8-13.1
			c-1.1-0.4-2.3-0.4-3.4,0c-6.4,2.1-9.1,7.3-6.5,13.4c1.4,3.4,3,6.6,4.8,9.6c7.9,13.2,19.5,22.8,34.5,29.1c1,0.4,2.2,0.6,2.8,0.8
			c4.2,0,9.1-3.9,10.5-7.8C126.9,114.5,124,113,121.7,111.2z"/>
	</g>
</g>
</svg>
