<?xml version="1.0" encoding="utf-8"?>
<!-- Generator: Adobe Illustrator 27.4.1, SVG Export Plug-In . SVG Version: 6.00 Build 0)  -->
<svg version="1.1" xmlns="http://www.w3.org/2000/svg" xmlns:xlink="http://www.w3.org/1999/xlink" x="0px" y="0px"
	 viewBox="0 0 108.3 106" style="enable-background:new 0 0 108.3 106;" xml:space="preserve">
<style type="text/css">
	.st0{fill:#FFFFFF;}
	.st1{fill:none;stroke:#00ADEE;stroke-width:3;stroke-miterlimit:10;}
	.st2{fill:#00ADEE;}
	.st3{fill:none;stroke:#00ADEE;stroke-width:2;stroke-miterlimit:10;}
</style>
<g id="background">
	<rect x="-980.5" y="-263" class="st0" width="450" height="450"/>
</g>
<g id="icons">
	<g>
		<circle class="st1" cx="55.1" cy="52.1" r="17.4"/>
		<circle class="st2" cx="55.1" cy="52.1" r="4.7"/>
		<path class="st1" d="M18.6,53.1C18,52.5,18,51.6,18.6,51c3.7-4.1,17.8-18.3,36.1-18c18.2,0.4,33.2,14,37.2,18
			c0.6,0.6,0.6,1.6,0,2.2C87.7,57.2,72.1,71.3,55,71.1C37.8,70.8,22.6,57,18.6,53.1z"/>
		<g>
			<line class="st3" x1="13.5" y1="34.6" x2="19.8" y2="39.9"/>
			<line class="st3" x1="87.7" y1="39.8" x2="94" y2="34.7"/>
			<line class="st3" x1="55.2" y1="24.1" x2="55.2" y2="16.5"/>
			<line class="st3" x1="35.6" y1="28.1" x2="32.5" y2="21.7"/>
			<line class="st3" x1="72.3" y1="27.8" x2="75" y2="21"/>
		</g>
		<g>
			<line class="st3" x1="96.8" y1="70.7" x2="90.5" y2="65.5"/>
			<line class="st3" x1="22.6" y1="66.9" x2="16.4" y2="72.1"/>
			<line class="st3" x1="55.3" y1="82" x2="55.4" y2="89.5"/>
			<line class="st3" x1="74.8" y1="77.6" x2="78.1" y2="84"/>
			<line class="st3" x1="38.2" y1="78.6" x2="35.6" y2="85.4"/>
		</g>
	</g>
</g>
</svg>
