<?xml version="1.0" encoding="utf-8"?>
<!-- Generator: Adobe Illustrator 27.4.1, SVG Export Plug-In . SVG Version: 6.00 Build 0)  -->
<svg version="1.1" id="Слой_1" xmlns="http://www.w3.org/2000/svg" xmlns:xlink="http://www.w3.org/1999/xlink" x="0px" y="0px"
	 viewBox="0 0 194 190.3" style="enable-background:new 0 0 194 190.3;" xml:space="preserve">
<style type="text/css">
	.st0{fill:#00ADEE;}
	.st1{fill-rule:evenodd;clip-rule:evenodd;fill:#FFFFFF;}
</style>
<g>
	<circle class="st0" cx="97" cy="104" r="46.8"/>
	<g>
		<g id="WA_Logo_10_">
			<g>
				<path class="st1" d="M119.5,82.1c-5.6-5.6-13.1-8.7-21-8.7c-16.4,0-29.7,13.3-29.7,29.7c0,5.2,1.4,10.3,4,14.8l-4.2,15.4
					l15.7-4.1c4.3,2.4,9.2,3.6,14.2,3.6h0c0,0,0,0,0,0c16.4,0,29.7-13.3,29.7-29.7C128.2,95.1,125.1,87.7,119.5,82.1z M98.5,127.7
					L98.5,127.7c-4.4,0-8.8-1.2-12.6-3.4l-0.9-0.5l-9.3,2.4l2.5-9.1l-0.6-0.9c-2.5-3.9-3.8-8.5-3.8-13.1c0-13.6,11.1-24.7,24.7-24.7
					c6.6,0,12.8,2.6,17.4,7.2c4.7,4.7,7.2,10.9,7.2,17.4C123.1,116.6,112.1,127.7,98.5,127.7z M112,109.2c-0.7-0.4-4.4-2.2-5.1-2.4
					c-0.7-0.2-1.2-0.4-1.7,0.4c-0.5,0.7-1.9,2.4-2.3,2.9c-0.4,0.5-0.9,0.6-1.6,0.2c-0.7-0.4-3.1-1.2-6-3.7c-2.2-2-3.7-4.4-4.1-5.1
					c-0.4-0.7,0-1.1,0.3-1.5c0.3-0.3,0.7-0.9,1.1-1.3c0.4-0.4,0.5-0.7,0.7-1.2c0.2-0.5,0.1-0.9-0.1-1.3c-0.2-0.4-1.7-4-2.3-5.5
					c-0.6-1.4-1.2-1.2-1.7-1.3c-0.4,0-0.9,0-1.4,0c-0.5,0-1.3,0.2-2,0.9c-0.7,0.7-2.6,2.5-2.6,6.2c0,3.6,2.7,7.2,3,7.7
					c0.4,0.5,5.2,8,12.7,11.2c1.8,0.8,3.2,1.2,4.2,1.6c1.8,0.6,3.4,0.5,4.7,0.3c1.4-0.2,4.4-1.8,5-3.5c0.6-1.7,0.6-3.2,0.4-3.5
					C113.3,109.8,112.8,109.6,112,109.2z"/>
			</g>
		</g>
	</g>
</g>
</svg>
